<svg width="102" height="92" viewBox="0 0 102 92" fill="none" xmlns="http://www.w3.org/2000/svg">
<path d="M78.3884 90.1146C79.1845 91.2516 80.7561 91.5328 81.8519 90.6808C89.5406 84.703 95.3425 76.6067 98.525 67.364C101.981 57.3277 102.171 46.455 99.0672 36.3041C95.9638 26.1533 89.7265 17.2456 81.2493 10.8575C72.772 4.46949 62.4901 0.929135 51.8771 0.743886C41.2641 0.558637 30.8649 3.738 22.1699 9.8263C13.4749 15.9146 6.93054 24.5993 3.47475 34.6356C0.018974 44.6719 -0.170807 55.5446 2.93261 65.6955C5.79061 75.0436 11.3064 83.3374 18.7819 89.58C19.8473 90.4696 21.4277 90.2435 22.263 89.135C23.0983 88.0265 22.8717 86.4559 21.8113 85.5604C15.1811 79.9609 10.287 72.5588 7.73934 64.2259C4.94627 55.0902 5.11707 45.3047 8.22727 36.272C11.3375 27.2393 17.2274 19.4231 25.0529 13.9437C32.8784 8.46418 42.2377 5.60276 51.7894 5.76948C61.3411 5.9362 70.5948 9.12252 78.2243 14.8718C85.8538 20.621 91.4674 28.638 94.2604 37.7737C97.0535 46.9094 96.8827 56.6949 93.7725 65.7276C90.9356 73.9665 85.7861 81.1933 78.9646 86.558C77.8736 87.416 77.5923 88.9776 78.3884 90.1146Z" fill="#E9EDF0"/>
</svg>
