<svg width="24" height="24" viewBox="0 0 24 24" fill="none" xmlns="http://www.w3.org/2000/svg">
<path d="M10.5792 12.0001L15.5292 16.9501C15.6248 17.0423 15.7009 17.1527 15.7533 17.2747C15.8058 17.3967 15.8333 17.5279 15.8345 17.6607C15.8357 17.7935 15.8103 17.9252 15.7601 18.0481C15.7098 18.1709 15.6355 18.2826 15.5416 18.3765C15.4477 18.4704 15.3361 18.5446 15.2132 18.5949C15.0903 18.6452 14.9586 18.6705 14.8258 18.6693C14.6931 18.6682 14.5618 18.6406 14.4398 18.5882C14.3178 18.5358 14.2075 18.4596 14.1152 18.3641L8.45825 12.7071C8.27078 12.5196 8.16546 12.2653 8.16546 12.0001C8.16546 11.7349 8.27078 11.4806 8.45825 11.2931L14.1152 5.6361C14.2075 5.54059 14.3178 5.46441 14.4398 5.412C14.5618 5.35959 14.6931 5.332 14.8258 5.33085C14.9586 5.32969 15.0903 5.355 15.2132 5.40528C15.3361 5.45556 15.4477 5.52981 15.5416 5.6237C15.6355 5.7176 15.7098 5.82925 15.7601 5.95214C15.8103 6.07504 15.8356 6.20672 15.8345 6.3395C15.8333 6.47228 15.8058 6.6035 15.7533 6.7255C15.7009 6.84751 15.6248 6.95785 15.5292 7.0501L10.5792 12.0001Z" fill="#21272A"/>
</svg>
