<svg width="24" height="24" viewBox="0 0 24 24" fill="none" xmlns="http://www.w3.org/2000/svg">
<path d="M13.4208 12.0001L8.47075 16.9501C8.37524 17.0423 8.29906 17.1527 8.24665 17.2747C8.19424 17.3967 8.16666 17.5279 8.1655 17.6607C8.16435 17.7935 8.18965 17.9252 8.23993 18.0481C8.29021 18.1709 8.36447 18.2826 8.45836 18.3765C8.55225 18.4704 8.6639 18.5446 8.7868 18.5949C8.9097 18.6452 9.04138 18.6705 9.17416 18.6693C9.30693 18.6682 9.43815 18.6406 9.56016 18.5882C9.68216 18.5358 9.79251 18.4596 9.88475 18.3641L15.5418 12.7071C15.7292 12.5196 15.8345 12.2653 15.8345 12.0001C15.8345 11.7349 15.7292 11.4806 15.5418 11.2931L9.88475 5.6361C9.79251 5.54059 9.68216 5.46441 9.56016 5.412C9.43815 5.35959 9.30694 5.332 9.17416 5.33085C9.04138 5.32969 8.9097 5.355 8.7868 5.40528C8.6639 5.45556 8.55225 5.52981 8.45836 5.6237C8.36447 5.7176 8.29021 5.82925 8.23993 5.95214C8.18965 6.07504 8.16435 6.20672 8.1655 6.3395C8.16666 6.47228 8.19424 6.6035 8.24665 6.7255C8.29906 6.84751 8.37524 6.95785 8.47075 7.0501L13.4208 12.0001Z" fill="#21272A"/>
</svg>
