<svg width="14" height="15" viewBox="0 0 14 15" fill="none" xmlns="http://www.w3.org/2000/svg">
<path d="M1 13.5V4.5H13V13.5H1Z" fill="white"/>
<path fill-rule="evenodd" clip-rule="evenodd" d="M2 2.5C1.44772 2.5 1 2.94772 1 3.5V12.5C1 13.0523 1.44772 13.5 2 13.5H12C12.5523 13.5 13 13.0523 13 12.5V3.5C13 2.94772 12.5523 2.5 12 2.5H2ZM0 3.5C0 2.39543 0.89543 1.5 2 1.5H12C13.1046 1.5 14 2.39543 14 3.5V12.5C14 13.6046 13.1046 14.5 12 14.5H2C0.89543 14.5 0 13.6046 0 12.5V3.5Z" fill="#191D21"/>
<path d="M8.25 7.50015C8.66421 7.50015 9 7.16437 9 6.75015C9 6.33594 8.66421 6.00015 8.25 6.00015C7.83579 6.00015 7.5 6.33594 7.5 6.75015C7.5 7.16437 7.83579 7.50015 8.25 7.50015Z" fill="#191D21"/>
<path d="M10.75 7.50015C11.1642 7.50015 11.5 7.16437 11.5 6.75015C11.5 6.33594 11.1642 6.00015 10.75 6.00015C10.3358 6.00015 10 6.33594 10 6.75015C10 7.16437 10.3358 7.50015 10.75 7.50015Z" fill="#191D21"/>
<path d="M8.25 9.99997C8.66421 9.99997 9 9.66418 9 9.24997C9 8.83576 8.66421 8.49997 8.25 8.49997C7.83579 8.49997 7.5 8.83576 7.5 9.24997C7.5 9.66418 7.83579 9.99997 8.25 9.99997Z" fill="#191D21"/>
<path d="M10.75 9.99997C11.1642 9.99997 11.5 9.66418 11.5 9.24997C11.5 8.83576 11.1642 8.49997 10.75 8.49997C10.3358 8.49997 10 8.83576 10 9.24997C10 9.66418 10.3358 9.99997 10.75 9.99997Z" fill="#191D21"/>
<path d="M3.25 9.99997C3.66421 9.99997 4 9.66418 4 9.24997C4 8.83576 3.66421 8.49997 3.25 8.49997C2.83579 8.49997 2.5 8.83576 2.5 9.24997C2.5 9.66418 2.83579 9.99997 3.25 9.99997Z" fill="#191D21"/>
<path d="M5.75 9.99997C6.16421 9.99997 6.5 9.66418 6.5 9.24997C6.5 8.83576 6.16421 8.49997 5.75 8.49997C5.33579 8.49997 5 8.83576 5 9.24997C5 9.66418 5.33579 9.99997 5.75 9.99997Z" fill="#191D21"/>
<path d="M3.25 12.5C3.66421 12.5 4 12.1642 4 11.75C4 11.3358 3.66421 11 3.25 11C2.83579 11 2.5 11.3358 2.5 11.75C2.5 12.1642 2.83579 12.5 3.25 12.5Z" fill="#191D21"/>
<path d="M5.75 12.5C6.16421 12.5 6.5 12.1642 6.5 11.75C6.5 11.3358 6.16421 11 5.75 11C5.33579 11 5 11.3358 5 11.75C5 12.1642 5.33579 12.5 5.75 12.5Z" fill="#191D21"/>
<path d="M8.25 12.5C8.66421 12.5 9 12.1642 9 11.75C9 11.3358 8.66421 11 8.25 11C7.83579 11 7.5 11.3358 7.5 11.75C7.5 12.1642 7.83579 12.5 8.25 12.5Z" fill="#191D21"/>
<path fill-rule="evenodd" clip-rule="evenodd" d="M3 0.5C3.27614 0.5 3.5 0.723858 3.5 1V2C3.5 2.27614 3.27614 2.5 3 2.5C2.72386 2.5 2.5 2.27614 2.5 2V1C2.5 0.723858 2.72386 0.5 3 0.5Z" fill="#191D21"/>
<path fill-rule="evenodd" clip-rule="evenodd" d="M11 0.5C11.2761 0.5 11.5 0.723858 11.5 1V2C11.5 2.27614 11.2761 2.5 11 2.5C10.7239 2.5 10.5 2.27614 10.5 2V1C10.5 0.723858 10.7239 0.5 11 0.5Z" fill="#191D21"/>
<path fill-rule="evenodd" clip-rule="evenodd" d="M0.5 4H13.5V5H0.5V4Z" fill="#191D21"/>
</svg>
