<svg width="18" height="15" viewBox="0 0 18 15" fill="none" xmlns="http://www.w3.org/2000/svg">
<path fill-rule="evenodd" clip-rule="evenodd" d="M3.02014 3.68182H1.92857C1.41686 3.68182 0.926357 3.88291 0.565071 4.24118C0.203143 4.59945 0 5.085 0 5.59091C0 7.41791 0 10.7639 0 12.5909C0 13.6454 0.863357 14.5 1.92857 14.5C5.04193 14.5 12.9581 14.5 16.0714 14.5C17.1366 14.5 18 13.6454 18 12.5909C18 10.7639 18 7.41791 18 5.59091C18 4.53645 17.1366 3.68182 16.0714 3.68182C13.9146 3.68182 9.80036 3.68182 9.80036 3.68182C9.4455 3.68182 9.1575 3.96691 9.1575 4.31818C9.1575 4.66945 9.4455 4.95455 9.80036 4.95455C9.80036 4.95455 13.9146 4.95455 16.0714 4.95455C16.4263 4.95455 16.7143 5.23964 16.7143 5.59091C16.7143 7.41791 16.7143 10.7639 16.7143 12.5909C16.7143 12.9428 16.4263 13.2273 16.0714 13.2273C12.9581 13.2273 5.04193 13.2273 1.92857 13.2273C1.57371 13.2273 1.28571 12.9428 1.28571 12.5909C1.28571 10.7639 1.28571 7.41791 1.28571 5.59091C1.28571 5.42227 1.35321 5.26064 1.47407 5.141C1.59429 5.022 1.75821 4.95455 1.92857 4.95455H3.02014C3.375 4.95455 3.663 4.66945 3.663 4.31818C3.663 3.96691 3.375 3.68182 3.02014 3.68182ZM9.80486 8.22101C9.56571 6.7071 8.2485 5.59091 6.7005 5.59091C6.51986 5.59091 6.33729 5.59091 6.15664 5.59091C4.60864 5.59091 3.29143 6.7071 3.05229 8.22101C2.92564 9.02473 2.78871 9.89146 2.69486 10.4852C2.637 10.853 2.74436 11.2272 2.98864 11.5097C3.23293 11.7923 3.58971 11.9545 3.96514 11.9545C5.20264 11.9545 7.6545 11.9545 8.892 11.9545C9.26743 11.9545 9.62421 11.7923 9.8685 11.5097C10.1128 11.2272 10.2201 10.853 10.1623 10.4858L9.80486 8.22101ZM11.5714 11.3182H14.7857C15.1406 11.3182 15.4286 11.0331 15.4286 10.6818C15.4286 10.3305 15.1406 10.0455 14.7857 10.0455H11.5714C11.2166 10.0455 10.9286 10.3305 10.9286 10.6818C10.9286 11.0331 11.2166 11.3182 11.5714 11.3182ZM11.5714 8.77273H14.1429C14.4977 8.77273 14.7857 8.48764 14.7857 8.13636C14.7857 7.78509 14.4977 7.5 14.1429 7.5H11.5714C11.2166 7.5 10.9286 7.78509 10.9286 8.13636C10.9286 8.48764 11.2166 8.77273 11.5714 8.77273ZM6.42857 0.5C5.18657 0.5 4.17857 1.49845 4.17857 2.72727C4.17857 3.95673 5.18657 4.95455 6.42857 4.95455C7.67057 4.95455 8.67857 3.95673 8.67857 2.72727C8.67857 1.49845 7.67057 0.5 6.42857 0.5Z" fill="white"/>
</svg>
