<svg width="14" height="15" viewBox="0 0 14 15" fill="none" xmlns="http://www.w3.org/2000/svg">
<g clip-path="url(#clip0_72_12494)">
<path d="M0 1H14L13.44 14H3.92L0 9.5V1Z" fill="white"/>
<path d="M0.583333 0.5C0.428624 0.5 0.280251 0.561458 0.170854 0.670854C0.0614583 0.780251 0 0.928624 0 1.08333V10.4167C3.30385e-05 10.5714 0.061513 10.7197 0.170917 10.8291L3.67092 14.3291C3.78029 14.4385 3.92864 14.5 4.08333 14.5H13.4167C13.5714 14.5 13.7197 14.4385 13.8291 14.3291C13.9385 14.2197 14 14.0714 14 13.9167V1.08333C14 0.928624 13.9385 0.780251 13.8291 0.670854C13.7197 0.561458 13.5714 0.5 13.4167 0.5H0.583333ZM1.16667 1.66667H12.8333V13.3333H4.66667V10.4167C4.66667 10.262 4.60521 10.1136 4.49581 10.0042C4.38642 9.89479 4.23804 9.83333 4.08333 9.83333H1.16667V1.66667Z" fill="white"/>
<path d="M4.67479 5.16669H9.32512C10.1138 5.17836 10.1138 3.98836 9.32512 4.00002H4.67479C4.59698 3.99885 4.51973 4.01327 4.44759 4.04244C4.37545 4.0716 4.30988 4.11491 4.25475 4.16983C4.19962 4.22474 4.15605 4.29014 4.1266 4.36216C4.09715 4.43419 4.08242 4.51138 4.08329 4.58919C4.08912 4.91411 4.35279 5.17136 4.67479 5.16669ZM4.67479 7.50002H9.32512C10.1138 7.51169 10.1138 6.32169 9.32512 6.33336H4.67479C4.59698 6.33218 4.51973 6.3466 4.44759 6.37577C4.37545 6.40493 4.30988 6.44825 4.25475 6.50316C4.19962 6.55807 4.15605 6.62347 4.1266 6.6955C4.09715 6.76752 4.08242 6.84472 4.08329 6.92252C4.08912 7.24744 4.35279 7.50469 4.67479 7.50002ZM7.00812 8.66669H9.32512C10.1138 8.65502 10.1138 9.84444 9.32512 9.83336H7.00812C6.93032 9.83453 6.85307 9.82011 6.78093 9.79095C6.70878 9.76178 6.64321 9.71847 6.58808 9.66355C6.53295 9.60864 6.48938 9.54324 6.45993 9.47122C6.43048 9.39919 6.41576 9.322 6.41662 9.24419C6.42245 8.91927 6.68612 8.66202 7.00812 8.66669Z" fill="#2B5437"/>
<path d="M4 10H0L4 14V10Z" fill="#2B5437"/>
</g>
<defs>
<clipPath id="clip0_72_12494">
<rect width="14" height="14" fill="white" transform="translate(0 0.5)"/>
</clipPath>
</defs>
</svg>
