<svg width="17" height="13" viewBox="0 0 17 13" fill="none" xmlns="http://www.w3.org/2000/svg">
<path d="M11 6C12.66 6 13.99 4.66 13.99 3C13.99 1.34 12.66 0 11 0C10.68 0 10.37 0.0499999 10.09 0.14C10.66 0.95 10.99 1.93 10.99 3C10.99 4.07 10.65 5.04 10.09 5.86C10.37 5.95 10.68 6 11 6ZM6 6C7.66 6 8.99 4.66 8.99 3C8.99 1.34 7.66 0 6 0C4.34 0 3 1.34 3 3C3 4.66 4.34 6 6 6ZM6 8C4 8 0 9 0 11V12C0 12.55 0.45 13 1 13H11C11.55 13 12 12.55 12 12V11C12 9 8 8 6 8ZM12.62 8.16C13.45 8.89 14 9.82 14 11V12.5C14 12.67 13.98 12.84 13.95 13H16.5C16.78 13 17 12.78 17 12.5V11C17 9.46 14.63 8.51 12.62 8.16Z" fill="black"/>
</svg>
