<svg width="24" height="24" viewBox="0 0 24 24" fill="none" xmlns="http://www.w3.org/2000/svg">
<path d="M11.75 21.75C6.78745 21.75 2.75 17.7549 2.75 12.8448C2.75 10.1755 3.92909 7.673 5.98481 5.98256C6.08079 5.90316 6.19169 5.84323 6.31116 5.80622C6.43062 5.76922 6.5563 5.75585 6.681 5.76689C6.8057 5.77794 6.92697 5.81317 7.03786 5.87058C7.14876 5.92798 7.2471 6.00643 7.32726 6.10144C7.40741 6.19644 7.46781 6.30613 7.50499 6.42423C7.54217 6.54232 7.5554 6.6665 7.54392 6.78966C7.53244 6.91281 7.49649 7.03252 7.43811 7.14192C7.37973 7.25133 7.30007 7.34828 7.2037 7.42723C5.58327 8.76078 4.65385 10.7354 4.65385 12.8448C4.65385 16.718 7.83716 19.8694 11.75 19.8694C15.6628 19.8694 18.8462 16.718 18.8462 12.8448C18.846 11.8096 18.6138 10.7873 18.1662 9.85139C17.7186 8.91543 17.0667 8.08901 16.2574 7.43151C16.1571 7.35419 16.0736 7.25782 16.0116 7.14807C15.9497 7.03832 15.9107 6.91743 15.8969 6.79254C15.883 6.66765 15.8947 6.54128 15.9311 6.42091C15.9676 6.30054 16.0281 6.1886 16.109 6.09171C16.19 5.99482 16.2898 5.91494 16.4025 5.85679C16.5153 5.79864 16.6387 5.76339 16.7655 5.75314C16.8922 5.74288 17.0198 5.75783 17.1406 5.79708C17.2614 5.83634 17.373 5.89912 17.4689 5.98171C18.4949 6.81532 19.3213 7.8631 19.8886 9.04974C20.4559 10.2364 20.7501 11.5324 20.75 12.8448C20.75 17.7549 16.7125 21.75 11.75 21.75Z" fill="white" stroke="white" stroke-width="0.5"/>
<path d="M11.75 11.75C11.4848 11.75 11.2304 11.6672 11.0429 11.5199C10.8554 11.3725 10.75 11.1727 10.75 10.9643V4.53571C10.75 4.32733 10.8554 4.12748 11.0429 3.98013C11.2304 3.83278 11.4848 3.75 11.75 3.75C12.0152 3.75 12.2696 3.83278 12.4571 3.98013C12.6446 4.12748 12.75 4.32733 12.75 4.53571V10.9643C12.75 11.1727 12.6446 11.3725 12.4571 11.5199C12.2696 11.6672 12.0152 11.75 11.75 11.75Z" fill="white" stroke="white" stroke-width="0.5"/>
</svg>
