<svg width="24" height="24" viewBox="0 0 24 24" fill="none" xmlns="http://www.w3.org/2000/svg">
<path d="M11.929 10.686L6.979 15.636C6.88675 15.7315 6.77641 15.8077 6.6544 15.8601C6.5324 15.9125 6.40118 15.9401 6.2684 15.9412C6.13562 15.9424 6.00394 15.9171 5.88105 15.8668C5.75815 15.8165 5.6465 15.7423 5.5526 15.6484C5.45871 15.5545 5.38446 15.4428 5.33418 15.3199C5.2839 15.1971 5.2586 15.0654 5.25975 14.9326C5.2609 14.7998 5.28849 14.6686 5.3409 14.5466C5.39331 14.4246 5.46949 14.3142 5.565 14.222L11.222 8.565C11.4095 8.37752 11.6638 8.27221 11.929 8.27221C12.1942 8.27221 12.4485 8.37752 12.636 8.565L18.293 14.222C18.3885 14.3142 18.4647 14.4246 18.5171 14.5466C18.5695 14.6686 18.5971 14.7998 18.5983 14.9326C18.5994 15.0654 18.5741 15.1971 18.5238 15.3199C18.4735 15.4428 18.3993 15.5545 18.3054 15.6484C18.2115 15.7423 18.0999 15.8165 17.977 15.8668C17.8541 15.9171 17.7224 15.9424 17.5896 15.9412C17.4568 15.9401 17.3256 15.9125 17.2036 15.8601C17.0816 15.8077 16.9712 15.7315 16.879 15.636L11.929 10.686Z" fill="#21272A"/>
</svg>
