<svg width="24" height="24" viewBox="0 0 24 24" fill="none" xmlns="http://www.w3.org/2000/svg">
<path fill-rule="evenodd" clip-rule="evenodd" d="M5.0235 7.5H3.75C3.153 7.5 2.58075 7.737 2.15925 8.15925C1.737 8.5815 1.5 9.15375 1.5 9.75C1.5 11.9032 1.5 15.8468 1.5 18C1.5 19.2428 2.50725 20.25 3.75 20.25C7.38225 20.25 16.6178 20.25 20.25 20.25C21.4928 20.25 22.5 19.2428 22.5 18C22.5 15.8468 22.5 11.9032 22.5 9.75C22.5 8.50725 21.4928 7.5 20.25 7.5C17.7337 7.5 12.9338 7.5 12.9338 7.5C12.5198 7.5 12.1838 7.836 12.1838 8.25C12.1838 8.664 12.5198 9 12.9338 9C12.9338 9 17.7337 9 20.25 9C20.664 9 21 9.336 21 9.75C21 11.9032 21 15.8468 21 18C21 18.4148 20.664 18.75 20.25 18.75C16.6178 18.75 7.38225 18.75 3.75 18.75C3.336 18.75 3 18.4148 3 18C3 15.8468 3 11.9032 3 9.75C3 9.55125 3.07875 9.36075 3.21975 9.21975C3.36 9.0795 3.55125 9 3.75 9H5.0235C5.4375 9 5.7735 8.664 5.7735 8.25C5.7735 7.836 5.4375 7.5 5.0235 7.5ZM12.939 12.8498C12.66 11.0655 11.1233 9.75 9.31725 9.75C9.1065 9.75 8.8935 9.75 8.68275 9.75C6.87675 9.75 5.34 11.0655 5.061 12.8498C4.91325 13.797 4.7535 14.8185 4.644 15.5183C4.5765 15.9518 4.70175 16.3928 4.98675 16.7258C5.27175 17.0588 5.688 17.25 6.126 17.25C7.56975 17.25 10.4303 17.25 11.874 17.25C12.312 17.25 12.7282 17.0588 13.0133 16.7258C13.2983 16.3928 13.4235 15.9518 13.356 15.519L12.939 12.8498ZM15 16.5H18.75C19.164 16.5 19.5 16.164 19.5 15.75C19.5 15.336 19.164 15 18.75 15H15C14.586 15 14.25 15.336 14.25 15.75C14.25 16.164 14.586 16.5 15 16.5ZM15 13.5H18C18.414 13.5 18.75 13.164 18.75 12.75C18.75 12.336 18.414 12 18 12H15C14.586 12 14.25 12.336 14.25 12.75C14.25 13.164 14.586 13.5 15 13.5ZM9 3.75C7.551 3.75 6.375 4.92675 6.375 6.375C6.375 7.824 7.551 9 9 9C10.449 9 11.625 7.824 11.625 6.375C11.625 4.92675 10.449 3.75 9 3.75Z" fill="#656F77"/>
</svg>
