<svg width="24" height="24" viewBox="0 0 24 24" fill="none" xmlns="http://www.w3.org/2000/svg">
<path d="M18.3636 20.5H5.63636C4.67194 20.5 3.74702 20.1137 3.06507 19.4261C2.38312 18.7384 2 17.8058 2 16.8333V13.1667C2 12.1942 2.38312 11.2616 3.06507 10.5739C3.74702 9.88631 4.67194 9.5 5.63636 9.5H18.3636C19.3281 9.5 20.253 9.88631 20.9349 10.5739C21.6169 11.2616 22 12.1942 22 13.1667V16.8333C22 17.8058 21.6169 18.7384 20.9349 19.4261C20.253 20.1137 19.3281 20.5 18.3636 20.5ZM5.63636 11.3333C5.15415 11.3333 4.69169 11.5265 4.35071 11.8703C4.00974 12.2141 3.81818 12.6804 3.81818 13.1667V16.8333C3.81818 17.3196 4.00974 17.7859 4.35071 18.1297C4.69169 18.4735 5.15415 18.6667 5.63636 18.6667H18.3636C18.8458 18.6667 19.3083 18.4735 19.6493 18.1297C19.9903 17.7859 20.1818 17.3196 20.1818 16.8333V13.1667C20.1818 12.6804 19.9903 12.2141 19.6493 11.8703C19.3083 11.5265 18.8458 11.3333 18.3636 11.3333H5.63636Z" fill="#656F77"/>
<path d="M18 11H6V9.22222C6 7.57199 6.63214 5.98934 7.75736 4.82245C8.88258 3.65555 10.4087 3 12 3C13.5913 3 15.1174 3.65555 16.2426 4.82245C17.3679 5.98934 18 7.57199 18 9.22222V11ZM7.71429 9.22222H16.2857C16.2857 8.04348 15.8342 6.91302 15.0305 6.07953C14.2267 5.24603 13.1366 4.77778 12 4.77778C10.8634 4.77778 9.77327 5.24603 8.96954 6.07953C8.16582 6.91302 7.71429 8.04348 7.71429 9.22222Z" fill="#656F77"/>
<path d="M18.3 10.5H5.7C4.98392 10.5 4.29716 10.8161 3.79081 11.3787C3.28446 11.9413 3 12.7044 3 13.5V17.5C3 18.2956 3.28446 19.0587 3.79081 19.6213C4.29716 20.1839 4.98392 20.5 5.7 20.5H18.3C19.0161 20.5 19.7028 20.1839 20.2092 19.6213C20.7155 19.0587 21 18.2956 21 17.5V13.5C21 12.7044 20.7155 11.9413 20.2092 11.3787C19.7028 10.8161 19.0161 10.5 18.3 10.5ZM6.6 16.5C6.422 16.5 6.24799 16.4414 6.09999 16.3315C5.95198 16.2216 5.83663 16.0654 5.76851 15.8827C5.70039 15.7 5.68257 15.4989 5.71729 15.3049C5.75202 15.1109 5.83774 14.9327 5.9636 14.7929C6.08947 14.653 6.24984 14.5578 6.42442 14.5192C6.599 14.4806 6.77996 14.5004 6.94441 14.5761C7.10887 14.6518 7.24943 14.78 7.34832 14.9444C7.44722 15.1089 7.5 15.3022 7.5 15.5C7.5 15.7652 7.40518 16.0196 7.2364 16.2071C7.06761 16.3946 6.83869 16.5 6.6 16.5ZM10.2 16.5C10.022 16.5 9.84799 16.4414 9.69999 16.3315C9.55198 16.2216 9.43663 16.0654 9.36851 15.8827C9.30039 15.7 9.28257 15.4989 9.31729 15.3049C9.35202 15.1109 9.43774 14.9327 9.5636 14.7929C9.68947 14.653 9.84984 14.5578 10.0244 14.5192C10.199 14.4806 10.38 14.5004 10.5444 14.5761C10.7089 14.6518 10.8494 14.78 10.9483 14.9444C11.0472 15.1089 11.1 15.3022 11.1 15.5C11.1 15.7652 11.0052 16.0196 10.8364 16.2071C10.6676 16.3946 10.4387 16.5 10.2 16.5ZM13.8 16.5C13.622 16.5 13.448 16.4414 13.3 16.3315C13.152 16.2216 13.0366 16.0654 12.9685 15.8827C12.9004 15.7 12.8826 15.4989 12.9173 15.3049C12.952 15.1109 13.0377 14.9327 13.1636 14.7929C13.2895 14.653 13.4498 14.5578 13.6244 14.5192C13.799 14.4806 13.98 14.5004 14.1444 14.5761C14.3089 14.6518 14.4494 14.78 14.5483 14.9444C14.6472 15.1089 14.7 15.3022 14.7 15.5C14.7 15.7652 14.6052 16.0196 14.4364 16.2071C14.2676 16.3946 14.0387 16.5 13.8 16.5ZM17.4 16.5C17.222 16.5 17.048 16.4414 16.9 16.3315C16.752 16.2216 16.6366 16.0654 16.5685 15.8827C16.5004 15.7 16.4826 15.4989 16.5173 15.3049C16.552 15.1109 16.6377 14.9327 16.7636 14.7929C16.8895 14.653 17.0498 14.5578 17.2244 14.5192C17.399 14.4806 17.58 14.5004 17.7444 14.5761C17.9089 14.6518 18.0494 14.78 18.1483 14.9444C18.2472 15.1089 18.3 15.3022 18.3 15.5C18.3 15.7652 18.2052 16.0196 18.0364 16.2071C17.8676 16.3946 17.6387 16.5 17.4 16.5Z" fill="#656F77"/>
</svg>
