<svg width="24" height="24" viewBox="0 0 24 24" fill="none" xmlns="http://www.w3.org/2000/svg">
<path d="M10.6225 4.01488C11.1266 4.06617 11.5199 4.49229 11.5199 5.00999V11.9299H18.4398C18.9921 11.9299 19.4398 12.3777 19.4398 12.9299C19.4398 17.8514 15.453 21.8498 10.5199 21.8498C5.5985 21.8498 1.60001 17.863 1.60001 12.9299C1.60005 8.00852 5.58688 4.01004 10.5199 4.00999L10.6225 4.01488Z" stroke="#191D21" stroke-width="2" stroke-miterlimit="10" stroke-linecap="round" stroke-linejoin="round"/>
<path d="M11.87 2.6C16.8031 2.6 20.7899 6.59849 20.7899 11.5199C20.7899 12.0722 20.3422 12.5199 19.7899 12.5199H11.87C11.3177 12.5199 10.87 12.0722 10.87 11.5199V3.6L10.8749 3.49746C10.9262 2.99333 11.3523 2.6 11.87 2.6Z" fill="white" stroke="#191D21" stroke-width="2" stroke-miterlimit="10" stroke-linecap="round" stroke-linejoin="round"/>
</svg>
