<svg width="50" height="50" viewBox="0 0 50 50" fill="none" xmlns="http://www.w3.org/2000/svg">
<path opacity="0.5" d="M24.2936 41.6032C24.328 41.6434 24.3637 41.6744 24.4 41.6958V44.0958C24.4 44.5566 24.4632 44.9985 24.5758 45.3244C24.6883 45.6502 24.8409 45.8333 25 45.8333C25.1592 45.8333 25.3118 45.6502 25.4243 45.3244C25.5368 44.9985 25.6 44.5566 25.6 44.0958V41.6981C25.6364 41.6767 25.672 41.6457 25.7064 41.6055C25.9022 41.3693 26.0576 40.9177 26.1384 40.3499C26.2 39.9236 26.2 40.663 26.2 39.5835V38.8787C25.4037 39.2335 24.5925 39.1998 23.8 38.7791V39.5835C23.8 40.663 23.8 39.9259 23.8608 40.3499C23.942 40.9172 24.0977 41.368 24.2936 41.6032Z" fill="#32A4B3" fill-opacity="0.5"/>
<path d="M24.8645 4.16758C34.0676 4.24165 41.5912 11.7634 41.6653 20.9684C41.6903 23.1461 41.2801 25.307 40.4582 27.3238C39.6364 29.3405 38.4199 31.1726 36.8801 32.7125C35.3401 34.2525 33.5073 35.4698 31.4905 36.2916C29.4736 37.1134 27.3127 37.5237 25.135 37.4986C15.932 37.4244 8.40828 29.9027 8.33421 20.6979C8.30915 18.5202 8.71942 16.3592 9.54124 14.3424C10.3631 12.3256 11.5804 10.4937 13.1203 8.95372C14.6603 7.41378 16.4923 6.19647 18.509 5.37461C20.5258 4.55281 22.6869 4.14257 24.8645 4.16758ZM26.5881 14.0621C26.2118 14.0713 25.8547 14.2283 25.595 14.4977L20.1828 20.1129C19.9915 20.3118 19.8629 20.5616 19.8137 20.8316C19.7645 21.1019 19.797 21.381 19.9065 21.6334C20.0159 21.8856 20.1981 22.1004 20.4299 22.2516C20.6619 22.4028 20.9342 22.4839 21.2121 22.484H25.4739L22.3479 25.7272C22.2137 25.8595 22.108 26.0176 22.0364 26.191C21.9648 26.3644 21.9286 26.5506 21.9309 26.7379C21.9332 26.9251 21.9734 27.1102 22.0491 27.2818C22.1248 27.4536 22.235 27.6087 22.3723 27.7379C22.5095 27.867 22.6717 27.9675 22.8489 28.0338C23.0261 28.1001 23.2151 28.1306 23.4045 28.1236C23.594 28.1167 23.7805 28.0719 23.9524 27.9928C24.1241 27.9136 24.2784 27.8015 24.4055 27.6627L29.8166 22.0475C30.0081 21.8486 30.1366 21.5989 30.1858 21.3287C30.2349 21.0584 30.2025 20.7794 30.093 20.527C29.9835 20.2747 29.8014 20.0599 29.5696 19.9088C29.3376 19.7576 29.0662 19.6765 28.7883 19.6764H24.5266L27.6516 16.4332C28.1933 15.8717 28.171 14.9841 27.6028 14.4488C27.3299 14.1923 26.9646 14.053 26.5881 14.0621Z" fill="#32A4B3"/>
</svg>
