<svg width="52" height="53" viewBox="0 0 52 53" fill="none" xmlns="http://www.w3.org/2000/svg">
<path d="M33.5222 26.0023C37.4826 26.0023 40.8897 22.4652 40.8897 17.8591C40.8897 13.3087 37.4646 9.9375 33.5222 9.9375C29.5807 9.9375 26.1547 13.3822 26.1547 17.8959C26.1547 22.4652 29.5618 26.0023 33.5222 26.0023ZM21.937 43.0625H45.0895C47.981 43.0625 49.013 42.2329 49.013 40.6115C49.013 35.8583 43.0631 29.2999 33.5043 29.2999C23.9634 29.2999 18.0134 35.8583 18.0134 40.6124C18.0134 42.2329 19.0445 43.0625 21.937 43.0625Z" fill="#FFCE5C"/>
<path opacity="0.5" d="M15.5394 43.0629H6.22898C3.90764 43.0629 2.98682 42.1419 2.98682 40.4828C2.98682 35.379 8.18092 29.2447 16.4881 29.2456C18.0812 29.2456 19.5012 29.4625 20.7697 29.8305C15.5394 33.1253 11.898 40.8545 15.5394 43.0629Z" fill="#FFCE5C" fill-opacity="0.5"/>
<path d="M21.8158 19.795C21.8158 22.9517 19.3838 25.3962 16.5925 25.3962C13.7858 25.3962 11.3553 22.9517 11.3553 19.8247C11.34 16.726 13.8018 14.3545 16.5925 14.3545C19.3685 14.3545 21.8158 16.6679 21.8158 19.795Z" fill="#FFCE5C" fill-opacity="0.5"/>
</svg>
