<svg width="48" height="48" viewBox="0 0 48 48" fill="none" xmlns="http://www.w3.org/2000/svg">
<path fill-rule="evenodd" clip-rule="evenodd" d="M41.9999 29.3663V34.2641C41.9999 37.6539 41.9999 39.3471 40.9453 40.4003C39.8907 41.4536 38.1953 41.4536 34.8011 41.4536C31.4068 41.4536 29.7114 41.4536 28.6568 40.4003C27.6022 39.3471 27.6022 37.6539 27.6022 34.2641V29.3663C27.6022 25.9764 27.6022 24.2833 28.6568 23.23C29.7114 22.1768 31.4068 22.1768 34.8011 22.1768C38.1953 22.1768 39.8907 22.1768 40.9453 23.23C41.9999 24.2833 41.9999 25.9764 41.9999 29.3663ZM31.6515 37.8588C31.6515 37.5013 31.7938 37.1584 32.0469 36.9056C32.3 36.6528 32.6433 36.5108 33.0013 36.5108H36.6008C36.9588 36.5108 37.3021 36.6528 37.5552 36.9056C37.8084 37.1584 37.9506 37.5013 37.9506 37.8588C37.9506 38.2163 37.8084 38.5592 37.5552 38.812C37.3021 39.0648 36.9588 39.2069 36.6008 39.2069H33.0013C32.6433 39.2069 32.3 39.0648 32.0469 38.812C31.7938 38.5592 31.6515 38.2163 31.6515 37.8588Z" fill="#6296FC"/>
<path d="M16.8039 32.9605C11.7125 32.9605 9.16772 32.9605 7.58577 31.3806C6.56173 30.3579 6.1334 28.9308 6.00562 26.6697V25.771H25.0546V26.6697C25.0258 27.4551 25.0258 28.3089 25.0258 29.204V34.7253C25.0258 36.28 25.0258 37.0553 25.1805 38.2146C25.3533 39.4926 25.7565 40.8442 26.8705 41.9532L26.9155 41.9999H16.8039C16.4459 41.9999 16.1026 41.8579 15.8495 41.6051C15.5964 41.3523 15.4541 41.0094 15.4541 40.6519C15.4541 40.2944 15.5964 39.9515 15.8495 39.6987C16.1026 39.4459 16.4459 39.3039 16.8039 39.3039H22.653V32.9605H16.8039Z" fill="#6296FC"/>
<path d="M20.4034 6H27.6022C34.389 6 37.7833 6 39.8907 8.10653C42 10.2113 42 13.6011 42 20.3791V20.6271C41.0857 20.0286 40.0761 19.7644 39.1096 19.6367C37.9506 19.4804 36.5199 19.4804 34.9631 19.4804H34.6391C33.0824 19.4804 31.6534 19.4804 30.4926 19.6367C29.213 19.8075 27.8596 20.2119 26.7492 21.3227C25.6909 22.3795 25.2734 23.6521 25.0862 24.8725V25.7712H6.0056V24.8725C5.993 24.0637 6.0056 23.1686 6.0056 22.1764V20.3791C6.0056 13.6011 6.0056 10.2113 8.11487 8.10653C10.2223 6 13.6166 6 20.4034 6Z" fill="#6296FC" fill-opacity="0.5"/>
</svg>
