<svg width="50" height="50" viewBox="0 0 50 50" fill="none" xmlns="http://www.w3.org/2000/svg">
<path fill-rule="evenodd" clip-rule="evenodd" d="M8.93472 31.7871L18.2148 41.0645C19.9099 42.7614 20.7575 43.6089 21.7926 43.7289C22.0232 43.757 22.2576 43.757 22.4882 43.7289C23.5233 43.6089 24.3709 42.7614 26.066 41.0664C27.763 39.3695 28.6106 38.522 28.7306 37.487C28.7575 37.2566 28.7575 37.0238 28.7306 36.7933C28.6106 35.7564 27.763 34.9089 26.0679 33.2121L23.9809 31.1289L18.1623 25.309L16.7859 23.9346C15.0908 22.2377 14.2432 21.3902 13.2082 21.2702C12.9771 21.2432 12.7436 21.2432 12.5125 21.2702C11.4774 21.3902 10.6299 22.2377 8.93472 23.9327C7.23772 25.6296 6.39016 26.4771 6.27015 27.5121C6.24328 27.7425 6.24328 27.9754 6.27015 28.2058C6.39016 29.2427 7.2396 30.0902 8.93472 31.7871ZM25.3085 18.1615L31.1289 23.9815L33.2141 26.0646C34.9092 27.7614 35.7567 28.6089 36.7918 28.7289C37.0225 28.7571 37.2569 28.7571 37.4875 28.7289C38.5226 28.6089 39.3701 27.7614 41.0653 26.0665C42.7623 24.3696 43.6098 23.5221 43.7299 22.4871C43.7567 22.2566 43.7567 22.0238 43.7299 21.7933C43.6098 20.7565 42.7623 19.909 41.0672 18.2121L31.7852 8.93462C30.0901 7.23775 29.2425 6.39026 28.2074 6.27026C27.9763 6.24325 27.7429 6.24325 27.5118 6.27026C26.4767 6.39026 25.6291 7.23775 23.934 8.93275C22.237 10.6296 21.3894 11.4771 21.2694 12.5121C21.2425 12.7426 21.2425 12.9754 21.2694 13.2059C21.3894 14.2427 22.237 15.0902 23.9321 16.7871L25.3085 18.1615Z" fill="#DE2ACC"/>
<path opacity="0.5" d="M24.3602 31.25L31.25 24.3602L25.6398 18.75L18.75 25.6398L24.3602 31.25Z" fill="#DE2ACC" fill-opacity="0.5"/>
<path fill-rule="evenodd" clip-rule="evenodd" d="M35.5935 6.65912C35.8556 6.39715 36.211 6.25 36.5815 6.25C36.952 6.25 37.3074 6.39715 37.5696 6.65912L43.358 12.4488C43.6125 12.7128 43.7533 13.0662 43.7499 13.433C43.7466 13.7998 43.5994 14.1506 43.34 14.4099C43.0807 14.6691 42.7299 14.8161 42.3633 14.8191C41.9967 14.8221 41.6436 14.6809 41.38 14.426L35.5935 8.63628C35.3317 8.37398 35.1846 8.01842 35.1846 7.6477C35.1846 7.27698 35.3317 6.92142 35.5935 6.65912ZM6.6589 35.6077C6.92106 35.3457 7.27642 35.1986 7.64694 35.1986C8.01745 35.1986 8.37282 35.3457 8.63497 35.6077L14.4215 41.3974C14.6685 41.6626 14.8029 42.0133 14.7966 42.3757C14.7902 42.7382 14.6434 43.084 14.3873 43.3403C14.1311 43.5966 13.7855 43.7434 13.4233 43.7498C13.061 43.7562 12.7105 43.6217 12.4454 43.3745L6.6589 37.5848C6.39707 37.3225 6.25 36.967 6.25 36.5963C6.25 36.2255 6.39707 35.87 6.6589 35.6077Z" fill="#DE2ACC" fill-opacity="0.5"/>
</svg>
