<svg width="50" height="50" viewBox="0 0 50 50" fill="none" xmlns="http://www.w3.org/2000/svg">
<path d="M30.3619 11.8611C30.3619 13.1504 29.8497 14.3868 28.9381 15.2985C28.0264 16.2101 26.79 16.7223 25.5008 16.7223C24.2115 16.7223 22.9751 16.2101 22.0634 15.2985C21.1518 14.3868 20.6396 13.1504 20.6396 11.8611C20.6396 10.5719 21.1518 9.33543 22.0634 8.42379C22.9751 7.51215 24.2115 7 25.5008 7C26.79 7 28.0264 7.51215 28.9381 8.42379C29.8497 9.33543 30.3619 10.5719 30.3619 11.8611Z" fill="#8145E3"/>
<path fill-rule="evenodd" clip-rule="evenodd" d="M21.8551 28.6609C22.138 28.8775 22.325 29.1999 22.375 29.5573C22.425 29.9147 22.3339 30.2777 22.1217 30.5665L20.2604 33.0981L20.136 33.2669C19.4931 34.0969 18.6084 34.6969 17.6097 34.9801L17.4089 35.0327L17.3946 35.0364L14.7546 35.7097C14.1421 35.8659 13.5983 36.2268 13.2099 36.7349C12.8214 37.243 12.6104 37.869 12.6106 38.5136C12.6106 38.9346 12.9466 39.2776 13.3591 39.2776H16.1253C17.2222 39.2776 17.6631 39.2758 18.0844 39.2232C19.1125 39.1003 20.1049 38.7631 21 38.2323C21.3662 38.0145 21.7218 37.7459 22.6 37.0744L26.4773 34.1054C26.6174 33.9981 26.7768 33.9201 26.9464 33.8757C27.116 33.8314 27.2925 33.8215 27.4659 33.8468C27.6392 33.8721 27.806 33.932 27.9566 34.0231C28.1073 34.1141 28.2389 34.2346 28.344 34.3776C28.449 34.5206 28.5255 34.6833 28.5689 34.8565C28.6124 35.0296 28.622 35.2098 28.5972 35.3868C28.5725 35.5637 28.5138 35.7339 28.4246 35.8877C28.3354 36.0415 28.2174 36.1759 28.0773 36.2832L26.4684 37.5136L28.7049 38.3702C29.8195 38.7967 30.2693 38.9655 30.7244 39.0762C30.9715 39.1342 31.2222 39.1796 31.4711 39.2141C31.9369 39.2758 32.4151 39.2776 33.6044 39.2776H37.64C37.8385 39.2776 38.0288 39.1971 38.1692 39.0538C38.3096 38.9106 38.3884 38.7162 38.3884 38.5136C38.3884 37.1888 37.5049 36.0309 36.2444 35.7097L33.5902 35.0327L33.3893 34.9783C32.3914 34.6953 31.5075 34.096 30.8649 33.2669C30.824 33.2161 30.7866 33.1635 30.7369 33.0981L28.8773 30.5665C28.7722 30.4235 28.6958 30.2607 28.6524 30.0876C28.6089 29.9144 28.5993 29.7342 28.624 29.5573C28.6488 29.3804 28.7075 29.2101 28.7967 29.0563C28.8859 28.9025 29.0039 28.7681 29.144 28.6609C29.284 28.5536 29.4434 28.4756 29.6131 28.4313C29.7827 28.3869 29.9592 28.3771 30.1325 28.4024C30.3059 28.4276 30.4726 28.4875 30.6233 28.5786C30.774 28.6697 30.9056 28.7901 31.0106 28.9331L32.8631 31.4539L32.9555 31.5791C33.2798 31.9987 33.7388 32.2879 34.2515 32.3958L36.8915 33.0673C38.0809 33.3709 39.1367 34.0716 39.8911 35.0581C40.6455 36.0446 41.0552 37.2602 41.0551 38.5118C41.0551 40.4391 39.5262 41.9999 37.64 41.9999H33.5138C32.4435 41.9999 31.784 41.9999 31.128 41.9127C30.7887 41.8668 30.4517 41.8044 30.1182 41.7258C29.4729 41.5716 28.856 41.3356 27.8551 40.9527L23.9369 39.4537C23.2613 39.9709 22.8151 40.3066 22.3404 40.5861C21.13 41.3047 19.7879 41.7618 18.3973 41.9291C17.8017 42.0017 17.1955 41.9999 16.2106 41.9999H13.3591C12.4533 41.9999 11.5847 41.6325 10.9442 40.9787C10.3038 40.3249 9.94397 39.4382 9.94397 38.5136C9.94397 35.9365 11.6613 33.6934 14.1075 33.0691L16.7475 32.3958C17.3125 32.2777 17.8104 31.9399 18.136 31.4539L19.9884 28.9331C20.0935 28.7901 20.2251 28.6697 20.3758 28.5786C20.5264 28.4875 20.6932 28.4276 20.8665 28.4024C21.0399 28.3771 21.2164 28.3869 21.386 28.4313C21.5556 28.4756 21.715 28.5536 21.8551 28.6609Z" fill="#8145E3"/>
<path d="M27.0175 21.2356C25.9848 21.0783 24.9307 21.0783 23.898 21.2356C19.3983 21.9274 16.0365 23.5825 16.0365 27.792C16.0365 28.7143 15.4675 29.5664 14.5575 29.985L9.91059 32.1258C9.5939 32.259 9.23281 32.2751 8.90339 32.1706C8.57397 32.066 8.30195 31.849 8.14464 31.5654C7.98734 31.2817 7.95704 30.9534 8.06012 30.6498C8.16321 30.3462 8.39163 30.0908 8.69725 29.9376L13.3406 27.7985L13.3424 27.7936C13.3424 22.387 17.6537 19.7082 23.4511 18.8185C24.7796 18.6158 26.1359 18.6158 27.4644 18.8185C33.2619 19.7082 37.5732 22.387 37.5732 27.7936V27.7969L42.2183 29.9376C42.3824 30.0067 42.5295 30.1051 42.651 30.2271C42.7724 30.3491 42.8656 30.4922 42.9251 30.6477C42.9846 30.8032 43.009 30.9681 42.997 31.1324C42.9851 31.2968 42.9369 31.4572 42.8554 31.6042C42.7738 31.7513 42.6607 31.8818 42.5226 31.9881C42.3845 32.0944 42.2243 32.1742 42.0517 32.2229C41.879 32.2716 41.6973 32.2881 41.5175 32.2714C41.3376 32.2547 41.1633 32.2052 41.005 32.1258L36.358 29.9867C35.9133 29.7813 35.5398 29.4676 35.2791 29.0805C35.0183 28.6933 34.8804 28.2479 34.8808 27.7936C34.8808 23.5841 31.5191 21.9274 27.0175 21.2356Z" fill="#8145E3" fill-opacity="0.5"/>
</svg>
