<svg width="50" height="50" viewBox="0 0 50 50" fill="none" xmlns="http://www.w3.org/2000/svg">
<path opacity="0.5" fill-rule="evenodd" clip-rule="evenodd" d="M39.8525 20.7834V40.902H41.747C42.1333 40.902 42.5037 41.052 42.7768 41.319C43.0499 41.5861 43.2034 41.9483 43.2034 42.326C43.2034 42.7037 43.0499 43.0659 42.7768 43.333C42.5037 43.6 42.1333 43.75 41.747 43.75H8.23847C7.85224 43.75 7.48182 43.6 7.20871 43.333C6.9356 43.0659 6.78217 42.7037 6.78217 42.326C6.78217 41.9483 6.9356 41.5861 7.20871 41.319C7.48182 41.052 7.85224 40.902 8.23847 40.902H10.133V20.7725H7.54548C7.35535 20.7518 7.17125 20.6946 7.00369 20.6043C6.83614 20.514 6.68841 20.3924 6.56895 20.2462C6.44948 20.1001 6.36062 19.9324 6.30743 19.7527C6.25425 19.573 6.23777 19.3849 6.25896 19.1989C6.28015 19.013 6.33858 18.833 6.43091 18.6692C6.52324 18.5053 6.64768 18.3609 6.7971 18.244L20.4432 7.98566C21.7345 6.97528 23.339 6.4248 24.9928 6.4248C26.6465 6.4248 28.251 6.97528 29.5423 7.98566L43.1884 18.244C43.3404 18.3599 43.4674 18.5041 43.562 18.6682C43.6566 18.8324 43.7169 19.0133 43.7395 19.2004C43.7621 19.3876 43.7465 19.5772 43.6936 19.7584C43.6406 19.9396 43.5514 20.1087 43.4312 20.256C43.3109 20.4032 43.162 20.5256 42.993 20.6162C42.824 20.7067 42.6383 20.7636 42.4466 20.7834H39.8525ZM21.2169 14.8997C22.2183 13.9205 23.5765 13.3704 24.9927 13.3704C26.4089 13.3704 27.7671 13.9205 28.7685 14.8997C29.7699 15.879 30.3325 17.2071 30.3325 18.5919C30.3325 19.9767 29.7699 21.3048 28.7685 22.2841C27.7671 23.2633 26.4089 23.8134 24.9927 23.8134C23.5765 23.8134 22.2183 23.2633 21.2169 22.2841C20.2155 21.3048 19.6529 19.9767 19.6529 18.5919C19.6529 17.2071 20.2155 15.879 21.2169 14.8997ZM25.0879 25.7121C26.3791 25.7121 27.4918 25.7121 28.383 25.8298C29.3384 25.9552 30.2529 26.2381 30.9947 26.9634C31.7364 27.6887 32.0257 28.5849 32.1539 29.5172C32.2665 30.3336 32.2743 31.3418 32.2743 32.5039V40.9019H17.7112V32.7393C17.7112 31.4767 17.7112 30.3887 17.8316 29.5172C17.9597 28.5849 18.249 27.6887 18.9908 26.9634C19.7325 26.2381 20.649 25.9552 21.6024 25.8298C22.4937 25.7121 23.6063 25.7121 24.8976 25.7121H25.0879Z" fill="#F02E2E"/>
<path d="M32.7272 6.25H37.5721C37.8291 6.25 38.0756 6.35073 38.2573 6.53002C38.439 6.70932 38.5411 6.95249 38.5411 7.20605V14.7917L31.7582 9.64583V7.20605C31.7582 6.95249 31.8603 6.70932 32.042 6.53002C32.2237 6.35073 32.4702 6.25 32.7272 6.25Z" fill="#F89696"/>
<path d="M22.5527 18.6787C22.5527 18.0448 22.808 17.4368 23.2623 16.9886C23.7166 16.5403 24.3327 16.2885 24.9752 16.2885C25.6177 16.2885 26.2339 16.5403 26.6882 16.9886C27.1425 17.4368 27.3977 18.0448 27.3977 18.6787C27.3977 19.3126 27.1425 19.9205 26.6882 20.3687C26.2339 20.817 25.6177 21.0688 24.9752 21.0688C24.3327 21.0688 23.7166 20.817 23.2623 20.3687C22.808 19.9205 22.5527 19.3126 22.5527 18.6787Z" fill="#F89696"/>
</svg>
