<svg width="54" height="55" viewBox="0 0 54 55" fill="none" xmlns="http://www.w3.org/2000/svg">
<path opacity="0.5" fill-rule="evenodd" clip-rule="evenodd" d="M5.28931 21.2643C5.28931 31.233 12.4494 36.9833 18.5458 41.8805C19.1797 42.3897 19.8028 42.8876 20.4042 43.3832C22.6577 45.2343 24.8288 46.9791 26.9998 46.9791V13.0337C17.2301 2.45628 5.28931 10.2592 5.28931 21.2643Z" fill="#ED7E1C" fill-opacity="0.5"/>
<path d="M31.342 17.5599L26.9999 13.0339V46.9793C29.1709 46.9793 31.342 45.2368 33.5955 43.3811C34.1969 42.8878 34.82 42.3899 35.454 41.8807C41.5503 36.9835 48.7104 31.2332 48.7104 21.2645C48.7104 11.1669 38.6563 3.76223 29.451 10.7867L33.6433 15.1566C33.949 15.4747 34.121 15.9064 34.1215 16.3567C34.1219 16.8069 33.9506 17.239 33.6455 17.5577C33.3403 17.8764 32.9262 18.0557 32.4942 18.0561C32.0622 18.0565 31.6477 17.878 31.342 17.5599Z" fill="#ED7E1C"/>
</svg>
