<svg width="50" height="50" viewBox="0 0 50 50" fill="none" xmlns="http://www.w3.org/2000/svg">
<path opacity="0.5" fill-rule="evenodd" clip-rule="evenodd" d="M21.8126 34.7888C22.1056 34.4962 22.5027 34.3319 22.9168 34.3319C23.3308 34.3319 23.728 34.4962 24.0209 34.7888L25.0001 35.768L25.9793 34.7888C26.1223 34.6353 26.2948 34.5122 26.4865 34.4268C26.6782 34.3414 26.8851 34.2954 27.0949 34.2917C27.3047 34.288 27.5131 34.3266 27.7076 34.4052C27.9022 34.4838 28.0789 34.6008 28.2273 34.7491C28.3757 34.8975 28.4926 35.0743 28.5712 35.2688C28.6498 35.4634 28.6884 35.6718 28.6847 35.8816C28.681 36.0914 28.6351 36.2983 28.5497 36.4899C28.4643 36.6816 28.3411 36.8541 28.1876 36.9971L27.2085 37.9763L28.1876 38.9555C28.3411 39.0985 28.4643 39.271 28.5497 39.4627C28.6351 39.6544 28.681 39.8613 28.6847 40.0711C28.6884 40.2809 28.6498 40.4892 28.5712 40.6838C28.4926 40.8784 28.3757 41.0551 28.2273 41.2035C28.0789 41.3518 27.9022 41.4688 27.7076 41.5474C27.5131 41.626 27.3047 41.6646 27.0949 41.6609C26.8851 41.6572 26.6782 41.6113 26.4865 41.5259C26.2948 41.4405 26.1223 41.3173 25.9793 41.1638L25.0001 40.1846L24.0209 41.1638C23.8779 41.3173 23.7054 41.4405 23.5137 41.5259C23.3221 41.6113 23.1152 41.6572 22.9054 41.6609C22.6956 41.6646 22.4872 41.626 22.2926 41.5474C22.0981 41.4688 21.9213 41.3518 21.773 41.2035C21.6246 41.0551 21.5076 40.8784 21.429 40.6838C21.3504 40.4892 21.3118 40.2809 21.3156 40.0711C21.3193 39.8613 21.3652 39.6544 21.4506 39.4627C21.536 39.271 21.6591 39.0985 21.8126 38.9555L22.7918 37.9763L21.8126 36.9971C21.52 36.7042 21.3557 36.307 21.3557 35.893C21.3557 35.4789 21.52 35.0818 21.8126 34.7888Z" fill="#5AD55F" fill-opacity="0.5"/>
<path d="M16.0726 8.33252C17.9017 8.33252 19.6854 8.89923 21.1771 9.95752L22.223 10.6948C23.0351 11.2693 24.0056 11.5786 25.0003 11.5786C25.9949 11.5785 26.9647 11.2693 27.7767 10.6948L28.8226 9.95557C30.315 8.89939 32.0987 8.33222 33.9271 8.33252H35.2025C36.0461 8.33254 36.8962 8.3853 37.6898 8.6665C42.6542 10.4291 46.0664 14.7809 45.8206 29.3804C45.7706 32.322 45.0832 35.5726 42.429 36.8413C41.5237 37.2765 40.5312 37.5015 39.5267 37.4995C38.3977 37.5179 37.2881 37.2014 36.3392 36.5894C35.4851 36.0311 34.7356 35.3055 33.9857 34.5806C33.0607 33.6847 32.1356 32.7886 31.0189 32.2095C29.8023 31.5786 28.4518 31.2496 27.0814 31.2495H22.9163C21.5456 31.2496 20.1954 31.5784 18.9788 32.2075C17.8623 32.7888 16.9371 33.6848 16.0101 34.5806C15.2601 35.3055 14.5104 36.0311 13.6605 36.5894C12.7115 37.2014 11.6021 37.518 10.473 37.4995C9.46838 37.5015 8.47605 37.2766 7.57065 36.8413C4.91652 35.5725 4.22904 32.3199 4.17904 29.3804C3.93117 14.7806 7.34633 10.429 12.3109 8.6665C13.1046 8.38534 13.9587 8.33252 14.7982 8.33252H16.0726ZM15.6253 15.104C15.2109 15.104 14.8129 15.268 14.5199 15.561C14.2269 15.8541 14.0628 16.2522 14.0628 16.6665V18.229H12.5003C12.0859 18.229 11.6879 18.393 11.3949 18.686C11.1019 18.9791 10.9378 19.3772 10.9378 19.7915C10.938 20.2057 11.102 20.6031 11.3949 20.896C11.6879 21.189 12.0859 21.354 12.5003 21.354H14.0628V22.9165C14.063 23.3307 14.227 23.7281 14.5199 24.021C14.8129 24.314 15.2109 24.479 15.6253 24.479C16.0396 24.4789 16.4369 24.3139 16.7298 24.021C17.0227 23.7281 17.1877 23.3307 17.1878 22.9165V21.354H18.7503C19.1646 21.3539 19.5619 21.1889 19.8548 20.896C20.1477 20.6031 20.3127 20.2057 20.3128 19.7915C20.3128 19.3771 20.1479 18.9791 19.8548 18.686C19.5619 18.3932 19.1646 18.2291 18.7503 18.229H17.1878V16.6665C17.1878 16.2521 17.0229 15.8541 16.7298 15.561C16.4369 15.2682 16.0396 15.1041 15.6253 15.104ZM34.8958 20.8325C34.4815 20.8325 34.0843 20.9976 33.7913 21.2905C33.4984 21.5835 33.3334 21.9807 33.3333 22.395C33.3333 22.8094 33.4983 23.2075 33.7913 23.5005C34.0843 23.7933 34.4816 23.9575 34.8958 23.9575C35.31 23.9575 35.7073 23.7932 36.0003 23.5005C36.2934 23.2075 36.4583 22.8094 36.4583 22.395C36.4583 21.9807 36.2933 21.5835 36.0003 21.2905C35.7073 20.9976 35.3102 20.8325 34.8958 20.8325ZM31.7708 17.7075C31.3565 17.7075 30.9594 17.8726 30.6663 18.1655C30.3734 18.4585 30.2084 18.8557 30.2083 19.27C30.2083 19.6844 30.3733 20.0825 30.6663 20.3755C30.9593 20.6683 31.3566 20.8325 31.7708 20.8325C32.185 20.8325 32.5823 20.6682 32.8753 20.3755C33.1684 20.0825 33.3333 19.6844 33.3333 19.27C33.3333 18.8557 33.1683 18.4585 32.8753 18.1655C32.5823 17.8726 32.1852 17.7075 31.7708 17.7075ZM38.0208 17.7075C37.6065 17.7075 37.2093 17.8726 36.9163 18.1655C36.6234 18.4585 36.4584 18.8557 36.4583 19.27C36.4583 19.6844 36.6233 20.0825 36.9163 20.3755C37.2093 20.6683 37.6066 20.8325 38.0208 20.8325C38.435 20.8325 38.8323 20.6682 39.1253 20.3755C39.4184 20.0825 39.5833 19.6844 39.5833 19.27C39.5833 18.8557 39.4183 18.4585 39.1253 18.1655C38.8323 17.8726 38.4352 17.7075 38.0208 17.7075ZM34.8958 14.5825C34.4815 14.5825 34.0843 14.7476 33.7913 15.0405C33.4984 15.3335 33.3334 15.7307 33.3333 16.145C33.3333 16.5594 33.4983 16.9575 33.7913 17.2505C34.0843 17.5433 34.4816 17.7075 34.8958 17.7075C35.31 17.7075 35.7073 17.5432 36.0003 17.2505C36.2934 16.9575 36.4583 16.5594 36.4583 16.145C36.4583 15.7307 36.2933 15.3335 36.0003 15.0405C35.7073 14.7476 35.3102 14.5825 34.8958 14.5825Z" fill="#5AD55F"/>
</svg>
