<svg width="23" height="19" viewBox="0 0 23 19" fill="none" xmlns="http://www.w3.org/2000/svg">
<path d="M21.1992 3.38133C20.9496 3.38134 20.7052 3.44785 20.4953 3.57291C20.2854 3.69798 20.1188 3.87632 20.0154 4.08665C19.912 4.29697 19.8761 4.53041 19.9121 4.75908C19.9481 4.98776 20.0544 5.20201 20.2184 5.37628C19.1461 6.52834 18.2602 6.27263 17.5922 6.53624C16.6078 6.92677 15.6973 6.81287 14.8852 6.19127C13.377 5.03596 12.3961 4.04197 11.918 2.87364C12.4805 2.63932 12.8742 2.11211 12.8742 1.50354C12.8742 0.673662 12.1465 0 11.25 0C10.8199 0.000861903 10.4077 0.15965 10.1038 0.441524C9.79997 0.723398 9.62933 1.10534 9.62933 1.50354C9.62891 1.79214 9.71862 2.0747 9.88765 2.3172C10.0567 2.5597 10.2978 2.75181 10.5821 2.87039C10.1039 4.03546 9.12309 5.02945 7.6184 6.18802C6.80278 6.81287 5.89223 6.92677 4.91138 6.53624C4.24341 6.27263 3.36099 6.52834 2.2817 5.37628C2.47682 5.16888 2.58937 4.9059 2.60062 4.63107C2.61188 4.35624 2.52116 4.08613 2.34356 3.86565C2.16596 3.64518 1.91218 3.48762 1.62442 3.41919C1.33667 3.35077 1.03228 3.37559 0.761874 3.48953C0.491471 3.60347 0.271351 3.79966 0.138122 4.04549C0.00489312 4.29131 -0.0334163 4.57194 0.0295651 4.84072C0.0925464 5.10949 0.253023 5.35021 0.484306 5.52284C0.71559 5.69547 1.00374 5.7896 1.30084 5.78959C1.336 5.78959 1.37467 5.78959 1.40983 5.78308L4.75318 16.4376H17.7504L21.0902 5.78308C21.1254 5.78959 21.1641 5.78959 21.1992 5.78959C21.9164 5.78959 22.5 5.24936 22.5 4.58546C22.5 3.92156 21.9164 3.38133 21.1992 3.38133Z" fill="#B4C6EC"/>
<path d="M4.875 17.2466H17.625V19.0001H4.875V17.2466Z" fill="#697898"/>
<ellipse cx="11.2222" cy="10.8758" rx="2.22222" ry="2.16678" fill="#697898"/>
</svg>
