<svg width="21" height="21" viewBox="0 0 21 21" fill="none" xmlns="http://www.w3.org/2000/svg">
<path d="M19.3438 4.36307C19.1219 4.36308 18.9046 4.43129 18.7181 4.55958C18.5315 4.68786 18.3834 4.87079 18.2914 5.08652C18.1995 5.30226 18.1676 5.5417 18.1996 5.77625C18.2316 6.01081 18.3261 6.23058 18.4719 6.40932C17.5188 7.59101 16.7313 7.32873 16.1375 7.59912C15.2625 7.99969 14.4531 7.88286 13.7313 7.24528C12.3906 6.06025 11.5188 5.0407 11.0938 3.84232C11.5938 3.60198 11.9438 3.0612 11.9438 2.43698C11.9438 1.58576 11.2969 0.894775 10.5 0.894775C10.1177 0.895659 9.75125 1.05853 9.48117 1.34765C9.21109 1.63678 9.05941 2.02854 9.05941 2.43698C9.05903 2.733 9.13877 3.02283 9.28902 3.27157C9.43927 3.52031 9.65363 3.71736 9.90628 3.83898C9.48128 5.03402 8.60941 6.05358 7.27191 7.24194C6.54692 7.88286 5.73754 7.99969 4.86567 7.59912C4.27192 7.32873 3.48755 7.59101 2.52818 6.40932C2.70162 6.19659 2.80166 5.92685 2.81166 5.64495C2.82167 5.36306 2.74103 5.086 2.58317 4.85985C2.4253 4.6337 2.19972 4.47209 1.94393 4.40191C1.68815 4.33172 1.41758 4.35718 1.17722 4.47405C0.936863 4.59092 0.741201 4.79216 0.622775 5.04431C0.504349 5.29645 0.470297 5.5843 0.52628 5.85999C0.582264 6.13568 0.724909 6.38258 0.930495 6.55965C1.13608 6.73672 1.39222 6.83328 1.6563 6.83326C1.68755 6.83326 1.72193 6.83326 1.75318 6.82659L4.72505 17.7551H16.2781L19.2469 6.82659C19.2781 6.83326 19.3125 6.83326 19.3438 6.83326C19.9813 6.83326 20.5 6.27914 20.5 5.59816C20.5 4.91719 19.9813 4.36307 19.3438 4.36307Z" fill="#F26060"/>
<path d="M4.83333 18.585H16.1667V20.3835H4.83333V18.585Z" fill="#FFCE5C"/>
<ellipse cx="10.7222" cy="11.7705" rx="2.22222" ry="2.16678" fill="#FFCE5C"/>
</svg>
